<svg xmlns="http://www.w3.org/2000/svg" viewBox="0 0 1600 900" preserveAspectRatio="xMidYMid slice">
  <defs>
    <linearGradient id="g_002-vena" x1="0" y1="0" x2="1" y2="1">
      <stop offset="0" stop-color="#1a2e57"/>
      <stop offset="1" stop-color="#d4a373" stop-opacity="0.55"/>
    </linearGradient>
    <pattern id="grid_002-vena" width="40" height="40" patternUnits="userSpaceOnUse">
      <path d="M 40 0 L 0 0 0 40" fill="none" stroke="#fff" stroke-width="0.5" opacity="0.08"/>
    </pattern>
  </defs>
  <rect width="1600" height="900" fill="#1a2e57"/>
  <rect width="1600" height="900" fill="url(#g_002-vena)"/>
  <rect width="1600" height="900" fill="url(#grid_002-vena)"/>
  <g transform="translate(800,430)">
          <polygon points="-380,-220 380,-220 340,-260 -340,-260" fill="#fff" opacity="0.3"/>
          <rect x="-300" y="-200" width="50" height="360" fill="#fff" opacity="0.25"/><rect x="-310" y="-210" width="70" height="14" fill="#fff" opacity="0.4"/><rect x="-180" y="-200" width="50" height="360" fill="#fff" opacity="0.25"/><rect x="-190" y="-210" width="70" height="14" fill="#fff" opacity="0.4"/><rect x="-60" y="-200" width="50" height="360" fill="#fff" opacity="0.25"/><rect x="-70" y="-210" width="70" height="14" fill="#fff" opacity="0.4"/><rect x="60" y="-200" width="50" height="360" fill="#fff" opacity="0.25"/><rect x="50" y="-210" width="70" height="14" fill="#fff" opacity="0.4"/><rect x="180" y="-200" width="50" height="360" fill="#fff" opacity="0.25"/><rect x="170" y="-210" width="70" height="14" fill="#fff" opacity="0.4"/><rect x="300" y="-200" width="50" height="360" fill="#fff" opacity="0.25"/><rect x="290" y="-210" width="70" height="14" fill="#fff" opacity="0.4"/>
          <rect x="-400" y="160" width="800" height="30" fill="#fff" opacity="0.35"/>
        </g>
  <g>
    <rect x="80" y="740" width="6" height="64" fill="#fff"/>
    <text x="105" y="788" font-family="Inter, sans-serif" font-size="18" font-weight="600" fill="#fff" opacity="0.85" letter-spacing="3">ФБРК</text>
    <text x="105" y="830" font-family="Playfair Display, Georgia, serif" font-weight="900" font-size="54" fill="#fff">Вена · €4,5 млн</text>
  </g>
</svg>