<svg xmlns="http://www.w3.org/2000/svg" viewBox="0 0 1600 900" preserveAspectRatio="xMidYMid slice">
  <defs>
    <linearGradient id="g_005-neftegaz" x1="0" y1="0" x2="1" y2="1">
      <stop offset="0" stop-color="#1a1f2e"/>
      <stop offset="1" stop-color="#4a5a7a" stop-opacity="0.85"/>
    </linearGradient>
    <pattern id="p_005-neftegaz" width="48" height="48" patternUnits="userSpaceOnUse">
      <path d="M 48 0 L 0 0 0 48" fill="none" stroke="#fff" stroke-width="0.5" opacity="0.06"/>
    </pattern>
  </defs>
  <rect width="1600" height="900" fill="#1a1f2e"/>
  <rect width="1600" height="900" fill="url(#g_005-neftegaz)"/>
  <rect width="1600" height="900" fill="url(#p_005-neftegaz)"/>
  <g opacity="0.55" stroke="#fff" stroke-width="2.5" fill="none"><polygon points="770,580 830,580 820,340 780,340"/><line x1="780" y1="380" x2="820" y2="380"/><line x1="780" y1="420" x2="820" y2="420"/><line x1="780" y1="460" x2="820" y2="460"/><line x1="780" y1="500" x2="820" y2="500"/><line x1="780" y1="540" x2="820" y2="540"/><line x1="800" y1="340" x2="800" y2="300"/><rect x="788" y="290" width="24" height="14" fill="#fff"/></g>
  <g opacity="0.6">
    <rect x="80" y="800" width="4" height="40" fill="#fff"/>
    <text x="100" y="828" font-family="system-ui, sans-serif" font-size="18" font-weight="600" fill="#fff" letter-spacing="3">ФБРК</text>
  </g>
</svg>