<svg xmlns="http://www.w3.org/2000/svg" viewBox="0 0 1600 900" preserveAspectRatio="xMidYMid slice">
  <defs>
    <linearGradient id="g_005-neftegaz" x1="0" y1="0" x2="1" y2="1">
      <stop offset="0" stop-color="#1a1a1a"/>
      <stop offset="1" stop-color="#da7101" stop-opacity="0.55"/>
    </linearGradient>
    <pattern id="grid_005-neftegaz" width="40" height="40" patternUnits="userSpaceOnUse">
      <path d="M 40 0 L 0 0 0 40" fill="none" stroke="#fff" stroke-width="0.5" opacity="0.08"/>
    </pattern>
  </defs>
  <rect width="1600" height="900" fill="#1a1a1a"/>
  <rect width="1600" height="900" fill="url(#g_005-neftegaz)"/>
  <rect width="1600" height="900" fill="url(#grid_005-neftegaz)"/>
  <g transform="translate(800,550)" opacity="0.3">
          <polygon points="-100,0 100,0 50,-340 -50,-340" fill="none" stroke="#fff" stroke-width="4"/>
          <line x1="-100" y1="0" x2="50" y2="-340" stroke="#fff" stroke-width="3"/>
          <line x1="100" y1="0" x2="-50" y2="-340" stroke="#fff" stroke-width="3"/>
          <line x1="-75" y1="-85" x2="75" y2="-85" stroke="#fff" stroke-width="3"/>
          <line x1="-62" y1="-170" x2="62" y2="-170" stroke="#fff" stroke-width="3"/>
          <line x1="-50" y1="-255" x2="50" y2="-255" stroke="#fff" stroke-width="3"/>
          <path d="M -400 0 L 400 0" stroke="#fff" stroke-width="6"/>
        </g>
  <g>
    <rect x="80" y="740" width="6" height="64" fill="#fff"/>
    <text x="105" y="788" font-family="Inter, sans-serif" font-size="18" font-weight="600" fill="#fff" opacity="0.85" letter-spacing="3">ФБРК</text>
    <text x="105" y="830" font-family="Playfair Display, Georgia, serif" font-weight="900" font-size="54" fill="#fff">Нефтегаз +40%</text>
  </g>
</svg>