<svg xmlns="http://www.w3.org/2000/svg" viewBox="0 0 1600 900" preserveAspectRatio="xMidYMid slice">
  <defs>
    <linearGradient id="g_006-enpf" x1="0" y1="0" x2="1" y2="1">
      <stop offset="0" stop-color="#0f1e3d"/>
      <stop offset="1" stop-color="#8a1d1d" stop-opacity="0.55"/>
    </linearGradient>
    <pattern id="grid_006-enpf" width="40" height="40" patternUnits="userSpaceOnUse">
      <path d="M 40 0 L 0 0 0 40" fill="none" stroke="#fff" stroke-width="0.5" opacity="0.08"/>
    </pattern>
  </defs>
  <rect width="1600" height="900" fill="#0f1e3d"/>
  <rect width="1600" height="900" fill="url(#g_006-enpf)"/>
  <rect width="1600" height="900" fill="url(#grid_006-enpf)"/>
  <g transform="translate(800,430)">
          <rect x="-420" y="20" width="90" height="140" fill="#fff" opacity="0.22"/><rect x="-290" y="-40" width="90" height="200" fill="#fff" opacity="0.22"/><rect x="-160" y="-100" width="90" height="260" fill="#fff" opacity="0.22"/><rect x="-30" y="-60" width="90" height="220" fill="#fff" opacity="0.22"/><rect x="100" y="-10" width="90" height="170" fill="#fff" opacity="0.22"/><rect x="230" y="40" width="90" height="120" fill="#fff" opacity="0.22"/><rect x="360" y="80" width="90" height="80" fill="#fff" opacity="0.22"/>
          <path d="M -420 -60 L -280 -80 L -140 -40 L 0 -140 L 140 -80 L 280 -20 L 420 50" fill="none" stroke="#8a1d1d" stroke-width="6" opacity="0.75"/>
          <line x1="-470" y1="160" x2="470" y2="160" stroke="#fff" stroke-width="2" opacity="0.4"/>
        </g>
  <g>
    <rect x="80" y="740" width="6" height="64" fill="#fff"/>
    <text x="105" y="788" font-family="Inter, sans-serif" font-size="18" font-weight="600" fill="#fff" opacity="0.85" letter-spacing="3">ФБРК</text>
    <text x="105" y="830" font-family="Playfair Display, Georgia, serif" font-weight="900" font-size="54" fill="#fff">ЕНПФ · −240 млрд</text>
  </g>
</svg>