<svg xmlns="http://www.w3.org/2000/svg" viewBox="0 0 1600 900" preserveAspectRatio="xMidYMid slice">
  <defs>
    <linearGradient id="g_008-ktzh" x1="0" y1="0" x2="1" y2="1">
      <stop offset="0" stop-color="#1a1a1a"/>
      <stop offset="1" stop-color="#c9a35f" stop-opacity="0.55"/>
    </linearGradient>
    <pattern id="grid_008-ktzh" width="40" height="40" patternUnits="userSpaceOnUse">
      <path d="M 40 0 L 0 0 0 40" fill="none" stroke="#fff" stroke-width="0.5" opacity="0.08"/>
    </pattern>
  </defs>
  <rect width="1600" height="900" fill="#1a1a1a"/>
  <rect width="1600" height="900" fill="url(#g_008-ktzh)"/>
  <rect width="1600" height="900" fill="url(#grid_008-ktzh)"/>
  <g transform="translate(800,510)">
          <line x1="-800" y1="-60" x2="800" y2="-60" stroke="#fff" stroke-width="6" opacity="0.35"/>
          <line x1="-800" y1="60" x2="800" y2="60" stroke="#fff" stroke-width="6" opacity="0.35"/>
          <rect x="-700" y="-20" width="80" height="40" fill="#fff" opacity="0.3"/><rect x="-570" y="-20" width="80" height="40" fill="#fff" opacity="0.3"/><rect x="-440" y="-20" width="80" height="40" fill="#fff" opacity="0.3"/><rect x="-310" y="-20" width="80" height="40" fill="#fff" opacity="0.3"/><rect x="-180" y="-20" width="80" height="40" fill="#fff" opacity="0.3"/><rect x="-50" y="-20" width="80" height="40" fill="#fff" opacity="0.3"/><rect x="80" y="-20" width="80" height="40" fill="#fff" opacity="0.3"/><rect x="210" y="-20" width="80" height="40" fill="#fff" opacity="0.3"/><rect x="340" y="-20" width="80" height="40" fill="#fff" opacity="0.3"/><rect x="470" y="-20" width="80" height="40" fill="#fff" opacity="0.3"/><rect x="600" y="-20" width="80" height="40" fill="#fff" opacity="0.3"/><rect x="730" y="-20" width="80" height="40" fill="#fff" opacity="0.3"/>
        </g>
        <g transform="translate(800,290)" opacity="0.4">
          <rect x="-140" y="-60" width="280" height="120" rx="10" fill="#c9a35f"/>
          <rect x="-120" y="-40" width="60" height="40" fill="#1a1a1a"/>
          <rect x="60" y="-40" width="60" height="40" fill="#1a1a1a"/>
        </g>
  <g>
    <rect x="80" y="740" width="6" height="64" fill="#fff"/>
    <text x="105" y="788" font-family="Inter, sans-serif" font-size="18" font-weight="600" fill="#fff" opacity="0.85" letter-spacing="3">ФБРК</text>
    <text x="105" y="830" font-family="Playfair Display, Georgia, serif" font-weight="900" font-size="54" fill="#fff">КТЖ · $1 млрд</text>
  </g>
</svg>