<svg xmlns="http://www.w3.org/2000/svg" viewBox="0 0 1600 900" preserveAspectRatio="xMidYMid slice">
  <defs>
    <linearGradient id="g_009-kanal" x1="0" y1="0" x2="1" y2="1">
      <stop offset="0" stop-color="#0f1e3d"/>
      <stop offset="1" stop-color="#5b8fa8" stop-opacity="0.55"/>
    </linearGradient>
    <pattern id="grid_009-kanal" width="40" height="40" patternUnits="userSpaceOnUse">
      <path d="M 40 0 L 0 0 0 40" fill="none" stroke="#fff" stroke-width="0.5" opacity="0.08"/>
    </pattern>
  </defs>
  <rect width="1600" height="900" fill="#0f1e3d"/>
  <rect width="1600" height="900" fill="url(#g_009-kanal)"/>
  <rect width="1600" height="900" fill="url(#grid_009-kanal)"/>
  <g transform="translate(800,450)" opacity="0.3">
          <path d="M -700 120 Q -500 60 -300 120 T 100 120 T 500 120 T 900 120 L 900 400 L -700 400 Z" fill="#fff"/>
          <path d="M -700 60 Q -500 0 -300 60 T 100 60 T 500 60 T 900 60" fill="none" stroke="#fff" stroke-width="3" opacity="0.6"/>
          <path d="M -700 0 Q -500 -60 -300 0 T 100 0 T 500 0 T 900 0" fill="none" stroke="#fff" stroke-width="2" opacity="0.4"/>
          <circle cx="-300" cy="-180" r="60" fill="#fff" opacity="0.2"/>
        </g>
  <g>
    <rect x="80" y="740" width="6" height="64" fill="#fff"/>
    <text x="105" y="788" font-family="Inter, sans-serif" font-size="18" font-weight="600" fill="#fff" opacity="0.85" letter-spacing="3">ФБРК</text>
    <text x="105" y="830" font-family="Playfair Display, Georgia, serif" font-weight="900" font-size="54" fill="#fff">Иртыш–Успенка</text>
  </g>
</svg>