<svg xmlns="http://www.w3.org/2000/svg" viewBox="0 0 1600 900" preserveAspectRatio="xMidYMid slice">
  <defs>
    <linearGradient id="g_012-agro" x1="0" y1="0" x2="1" y2="1">
      <stop offset="0" stop-color="#2d3a24"/>
      <stop offset="1" stop-color="#d4a373" stop-opacity="0.55"/>
    </linearGradient>
    <pattern id="grid_012-agro" width="40" height="40" patternUnits="userSpaceOnUse">
      <path d="M 40 0 L 0 0 0 40" fill="none" stroke="#fff" stroke-width="0.5" opacity="0.08"/>
    </pattern>
  </defs>
  <rect width="1600" height="900" fill="#2d3a24"/>
  <rect width="1600" height="900" fill="url(#g_012-agro)"/>
  <rect width="1600" height="900" fill="url(#grid_012-agro)"/>
  <g transform="translate(800,430)">
          <line x1="-800" y1="400" x2="800" y2="400" stroke="#fff" stroke-width="2" opacity="0.4"/><line x1="-760" y1="392" x2="760" y2="392" stroke="#fff" stroke-width="2" opacity="0.378"/><line x1="-720" y1="384" x2="720" y2="384" stroke="#fff" stroke-width="2" opacity="0.35600000000000004"/><line x1="-680" y1="376" x2="680" y2="376" stroke="#fff" stroke-width="2" opacity="0.334"/><line x1="-640" y1="368" x2="640" y2="368" stroke="#fff" stroke-width="2" opacity="0.31200000000000006"/><line x1="-600" y1="360" x2="600" y2="360" stroke="#fff" stroke-width="2" opacity="0.29000000000000004"/><line x1="-560" y1="352" x2="560" y2="352" stroke="#fff" stroke-width="2" opacity="0.268"/><line x1="-520" y1="344" x2="520" y2="344" stroke="#fff" stroke-width="2" opacity="0.24600000000000002"/><line x1="-480" y1="336" x2="480" y2="336" stroke="#fff" stroke-width="2" opacity="0.22400000000000003"/><line x1="-440" y1="328" x2="440" y2="328" stroke="#fff" stroke-width="2" opacity="0.20200000000000004"/><line x1="-400" y1="320" x2="400" y2="320" stroke="#fff" stroke-width="2" opacity="0.18000000000000005"/><line x1="-360" y1="312" x2="360" y2="312" stroke="#fff" stroke-width="2" opacity="0.15800000000000003"/><line x1="-320" y1="304" x2="320" y2="304" stroke="#fff" stroke-width="2" opacity="0.136"/><line x1="-280" y1="296" x2="280" y2="296" stroke="#fff" stroke-width="2" opacity="0.11400000000000005"/><line x1="-240" y1="288" x2="240" y2="288" stroke="#fff" stroke-width="2" opacity="0.09200000000000003"/><line x1="-200" y1="280" x2="200" y2="280" stroke="#fff" stroke-width="2" opacity="0.07000000000000006"/>
          <circle cx="320" cy="-160" r="70" fill="#d4a373" opacity="0.45"/>
        </g>
  <g>
    <rect x="80" y="740" width="6" height="64" fill="#fff"/>
    <text x="105" y="788" font-family="Inter, sans-serif" font-size="18" font-weight="600" fill="#fff" opacity="0.85" letter-spacing="3">ФБРК</text>
    <text x="105" y="830" font-family="Playfair Display, Georgia, serif" font-weight="900" font-size="54" fill="#fff">Агробизнес · Абай</text>
  </g>
</svg>